<svg width="12px" height="12px" viewBox="0 0 20 20" xmlns="http://www.w3.org/2000/svg" fill="currentColor" class="text-red-100"><path d="M13.7184 4.67022C15.0105 4.67022 16.0535 3.62723 16.0535 2.33511C16.0535 1.04298 15.0105 0 13.7184 0C12.4263 0 11.3833 1.04298 11.3833 2.33511C11.3833 3.637 12.4263 4.67022 13.7184 4.67022ZM17.5508 4.0156C16.2171 5.88906 14.4194 6.10401 12.4922 4.96333C12.3628 4.88761 11.7814 4.56518 11.652 4.48946C8.55233 2.64776 5.45269 3.37076 3.37406 6.27743C2.49229 7.51582 4.53673 8.68826 5.40873 7.46209C6.48591 5.95501 7.85131 5.52512 9.3364 5.99898C8.57187 7.32286 7.90505 8.64674 6.95732 10.5202C6.0096 12.3937 3.93341 13.8885 1.93049 12.7161C0.486926 11.8758 -0.814969 13.9423 0.628596 14.7923C3.36185 16.3848 6.5714 15.4054 8.20548 13.3292C8.25922 13.3609 8.32273 13.3829 8.38868 13.4049C9.72233 13.8665 11.4785 15.1049 12.0061 15.547C12.5435 15.9891 13.4595 18.2265 13.9968 19.3477C14.6539 20.7155 16.796 19.7141 16.1292 18.3462C15.5161 17.0663 14.4707 14.526 13.6647 13.8787C13.0198 13.3609 11.7594 12.4034 10.6945 11.8563C11.415 10.4567 12.1698 9.07907 12.9539 7.71123C15.4722 8.48553 17.8732 7.572 19.5855 5.18072C20.4672 3.96187 18.4228 2.77722 17.5508 4.0156Z"></path></svg>