<svg width="20" height="20" viewBox="0 0 20 20" fill="none" xmlns="http://www.w3.org/2000/svg">
<g clip-path="url(#clip0_10105_584)">
<path fill-rule="evenodd" clip-rule="evenodd" d="M10 0C15.5232 0 20 4.47676 20 10C20 15.5232 15.5232 20 10 20C4.47676 20 0 15.5232 0 10C0 4.47676 4.47676 0 10 0Z" fill="#F0B90B"/>
<path d="M5.49596 10.0001L5.50317 12.6443L7.74997 13.9665V15.5145L4.18827 13.4256V9.22687L5.49596 10.0001ZM5.49596 7.35588V8.89674L4.18747 8.1227V6.58184L5.49596 5.8078L6.81087 6.58184L5.49596 7.35588ZM8.68827 6.58184L9.99676 5.8078L11.3117 6.58184L9.99676 7.35588L8.68827 6.58184Z" fill="white"/>
<path d="M6.4415 12.0963V10.5482L7.74999 11.3222V12.8631L6.4415 12.0963ZM8.68829 14.5209L9.99679 15.295L11.3117 14.5209V16.0618L9.99679 16.8358L8.68829 16.0618V14.5209ZM13.1883 6.58184L14.4968 5.8078L15.8117 6.58184V8.1227L14.4968 8.89674V7.35588L13.1883 6.58184ZM14.4968 12.6443L14.504 10.0001L15.8125 9.22607V13.4248L12.2508 15.5137V13.9657L14.4968 12.6443Z" fill="white"/>
<path d="M13.5586 12.0962L12.2501 12.863V11.3221L13.5586 10.5481V12.0962Z" fill="white"/>
<path d="M13.5585 7.90395L13.5657 9.45203L11.3125 10.7741V13.4248L10.004 14.1916L8.6955 13.4248V10.7741L6.4423 9.45203V7.90395L7.7564 7.12991L9.99599 8.45844L12.2492 7.12991L13.5641 7.90395H13.5585ZM6.4415 5.26052L9.99679 3.16437L13.5585 5.26052L12.25 6.03456L9.99679 4.70603L7.74999 6.03456L6.4415 5.26052Z" fill="white"/>
</g>
<defs>
<clipPath id="clip0_10105_584">
<rect width="20" height="20" fill="white"/>
</clipPath>
</defs>
</svg>
