<svg width="16" height="16" viewBox="0 0 16 16" xmlns="http://www.w3.org/2000/svg" fill="currentColor" size="16"><path d="M4.26432 8.60694L9.34672 2.49254L8.44919 7.06179H11.4892C11.6597 7.06179 11.7563 7.25729 11.6526 7.39273L6.65413 13.5077L7.47006 8.93845H4.42736C4.25648 8.93845 4.16 8.74228 4.26432 8.60694Z"></path><path d="M7.40948 1.82059C8.96787 1.75357 8.36867 3.50908 8.00012 4.11257 7.76047 4.50499 8.93462 3.63123 9.23444 2.99511L9.59314 1.2807 7.76978 1.5188 7.40948 1.82059ZM8.56541 14.1872C7.00702 14.2543 7.63157 12.4646 8.00012 11.8611 8.23978 11.4686 7.04027 12.3766 6.74046 13.0127L6.38175 14.7271 8.20511 14.489 8.56541 14.1872Z"></path><path d="M.280762 8.00012C.280762 3.73684 3.73684.280762 8.00012.280762 8.4376.280762 8.86657.317153 9.28419.387074 9.56122.433459 9.73217.707106 9.67218.981519L9.45601 1.97035C8.98907 1.85801 8.50154 1.7985 8.00012 1.7985 4.57506 1.7985 1.7985 4.57506 1.7985 8.00012 1.7985 10.2746 3.02293 12.2631 4.84859 13.3424 5.07741 13.4777 5.18843 13.7555 5.09339 14.0038L4.91467 14.4706C4.80767 14.75 4.48469 14.8809 4.2238 14.7343 1.87059 13.4119.280762 10.8916.280762 8.00012ZM6.52076 14.0242 6.3159 15.023C6.26001 15.2955 6.43061 15.565 6.70491 15.6113 7.12604 15.6824 7.55875 15.7195 8.00012 15.7195 12.2634 15.7195 15.7195 12.2634 15.7195 8.00012 15.7195 5.11272 14.1342 2.59559 11.7865 1.27162 11.5314 1.12773 11.2144 1.24924 11.1001 1.51898L10.9072 1.97458C10.8006 2.22645 10.911 2.51584 11.1465 2.65481 12.975 3.73343 14.2017 5.72352 14.2017 8.00012 14.2017 11.4252 11.4252 14.2017 8.00012 14.2017 7.49029 14.2017 6.99483 14.1402 6.52076 14.0242Z"></path></svg>