<svg width="12px" height="12px" viewBox="0 0 20 20" xmlns="http://www.w3.org/2000/svg" fill="currentColor" class="text-green-100"><path d="M15 6C15 8.76142 12.7614 11 10 11C7.23858 11 5 8.76142 5 6C5 3.23858 7.23858 1 10 1C12.7614 1 15 3.23858 15 6Z"></path><path d="M10 8.5C10 10.9853 7.98528 13 5.5 13 3.01472 13 1 10.9853 1 8.5 1 6.01472 3.01472 4 5.5 4 7.98528 4 10 6.01472 10 8.5ZM19 8.5C19 10.9853 16.9853 13 14.5 13 12.0147 13 10 10.9853 10 8.5 10 6.01472 12.0147 4 14.5 4 16.9853 4 19 6.01472 19 8.5Z"></path><path d="M5 8C4.44772 8 4 8.44771 4 9V18C4 18.5523 4.44772 19 5 19H15C15.5523 19 16 18.5523 16 18V9C16 8.44772 15.5523 8 15 8H5ZM6.7 16H13.3C13.6866 16 14 16.3134 14 16.7C14 17.0866 13.6866 17.4 13.3 17.4H6.7C6.3134 17.4 6 17.0866 6 16.7C6 16.3134 6.3134 16 6.7 16Z"></path></svg>