<svg width="14px" height="14px" viewBox="0 0 12 12" xmlns="http://www.w3.org/2000/svg" fill="currentColor" class="text-text-300 cursor-pointer group-hover:text-text-100 hover:text-text-100 transition-colors"><path d="M10.9513 2.85078C10.9513 1.75312 10.0615 0.863281 8.96384 0.863281H3.76884C3.4996 0.863281 3.28134 1.08154 3.28134 1.35078C3.28134 1.62002 3.4996 1.83828 3.76884 1.83828H8.96384C9.52303 1.83828 9.97634 2.29159 9.97634 2.85078V8.6037C9.97634 8.87294 10.1946 9.0912 10.4638 9.0912C10.7331 9.0912 10.9513 8.87294 10.9513 8.6037V2.85078Z"></path><path d="M8.71858 4.33231C8.71858 3.64886 8.16453 3.09481 7.48108 3.09481H2.28608C1.60263 3.09481 1.04858 3.64886 1.04858 4.33231V9.89992C1.04858 10.5834 1.60263 11.1374 2.28608 11.1374H7.48108C8.16453 11.1374 8.71858 10.5834 8.71858 9.89992V4.33231ZM7.48108 4.06981C7.62606 4.06981 7.74358 4.18734 7.74358 4.33231V9.89992C7.74358 10.0449 7.62606 10.1624 7.48108 10.1624H2.28608C2.14111 10.1624 2.02358 10.0449 2.02358 9.89992V4.33231C2.02358 4.18734 2.14111 4.06981 2.28608 4.06981H7.48108Z"></path></svg>