<svg width="14px" height="14px" viewBox="0 0 12 12"
     xmlns="http://www.w3.org/2000/svg"
     fill="currentColor"
     class="text-text-300">
  <path d="M10.5726 3.22303C10.5726 4.11371 9.85055 4.83574 8.9599 4.83574 8.06925 4.83574 7.34723 4.11371 7.34723 3.22303 7.34723 2.33236 8.06925 1.61032 8.9599 1.61032 9.85055 1.61032 10.5726 2.33236 10.5726 3.22303ZM8.25745 11.2298C8.43515 10.807 8.43407 10.211 8.43272 9.46178 8.4326 9.39538 8.43247 9.32778 8.43247 9.25898 8.43247 8.19989 7.73051 6.992 7.07 6.2872H8.74682C10.4037 6.2872 11.7468 7.63035 11.7468 9.2872V9.72981C11.7468 10.5582 11.0753 11.2298 10.2468 11.2298H8.25745ZM5.85436 2.85768C5.85436 3.96712 4.95501 4.86649 3.84561 4.86649 2.7362 4.86649 1.83685 3.96712 1.83685 2.85768 1.83685 1.74825 2.7362.848877 3.84561.848877 4.95501.848877 5.85436 1.74825 5.85436 2.85768ZM.222412 9.54857C.222412 7.58875 1.81116 6 3.77098 6 5.73081 6 7.31955 7.58875 7.31955 9.54857V10.4019C7.31955 10.8577 6.95003 11.2273 6.4942 11.2273H1.04777C.591937 11.2273.222412 10.8577.222412 10.4019V9.54857Z"/>
</svg>