<svg width="8" height="8" viewBox="0 0 16 16" fill="#88D693" xmlns="http://www.w3.org/2000/svg" size="8" color="#88D693"><path d="M8.15533 1.97888C9.77357 0.360637 12.3973 0.360635 14.0155 1.97888C15.6338 3.59713 15.6338 6.22082 14.0155 7.83907L9.27431 12.5803C7.65607 14.1985 5.03237 14.1985 3.41412 12.5803C1.79588 10.962 1.79588 8.33833 3.41413 6.72009L8.15533 1.97888Z" fill="#E0E0E0"></path><path d="M4.93493 5.20364L1.88499 8.25355C0.34447 9.79406 0.408942 12.3562 2.029 13.9763C3.64905 15.5963 6.2112 15.6608 7.75172 14.1203L10.8017 11.0704L4.93493 5.20364Z" fill="#52D48F"></path><path d="M4.63981 5.51398L5.43056 4.66428L11.3599 10.4906L10.558 11.3358L4.63981 5.51398Z" fill="#282A2E"></path></svg>