<svg width="12px" height="12px" viewBox="0 0 20 20" xmlns="http://www.w3.org/2000/svg" fill="currentColor" class="text-green-100"><path d="M10.361 12.7005C11.8521 12.7005 13.0608 11.4917 13.0608 10.0006C13.0608 8.50955 11.8521 7.30078 10.361 7.30078C8.8699 7.30078 7.66113 8.50955 7.66113 10.0006C7.66113 11.4917 8.8699 12.7005 10.361 12.7005Z"></path><path d="M12.3613 1V2.25204C15.1725 2.97559 17.3857 5.18879 18.1093 8H19.3613V12H18.1093C17.3857 14.8112 15.1725 17.0244 12.3613 17.748V19H8.36133V17.748C5.55011 17.0244 3.33692 14.8112 2.61336 12H1.36133V8H2.61336C3.33692 5.18879 5.55011 2.97559 8.36133 2.25204V1H12.3613ZM10.3613 4C7.04762 4 4.36133 6.68629 4.36133 10C4.36133 13.3137 7.04762 16 10.3613 16C13.675 16 16.3613 13.3137 16.3613 10C16.3613 6.68629 13.675 4 10.3613 4Z"></path></svg>