<svg width="12px" height="12px" viewBox="0 0 20 20" xmlns="http://www.w3.org/2000/svg" fill="currentColor"><path fill-rule="evenodd" clip-rule="evenodd" d="M15.5 8C17.433 8 19 6.433 19 4.5C19 2.567 17.433 1 15.5 1C13.567 1 12 2.567 12 4.5C12 4.67382 12.0126 4.84468 12.0371 5.0117C12.0039 5.00725 11.9705 5.00334 11.9369 5C7.8442 5 6.27366 7.9716 5.99998 9.4574C6.37893 9.91779 7.49052 10.9516 8.90526 11.4036C7.80643 12.6577 7.34408 15.598 7.19478 17.6787C6.15253 17.5859 4.82633 17.3919 3.58068 17.0255C2.90392 16.8265 2.53424 16.4272 2.33388 15.9098C2.12254 15.3642 2.09247 14.662 2.1832 13.8886C2.30088 12.8856 2.61565 11.9917 2.87988 11.2414C2.93572 11.0828 2.98931 10.9307 3.03829 10.7852C3.11773 10.5494 3.1866 10.345 3.23574 10.1812C3.46948 9.40207 3.1252 8.68275 2.70405 8.26659C2.29566 7.86304 1.46096 7.52269 1.06594 7.52269L1.06593 8.50876C1.33431 8.59502 1.71512 8.7834 1.98038 9.04553C2.23289 9.29505 2.33608 9.55574 2.24209 9.86905C2.20435 9.99485 2.14623 10.1668 2.0759 10.3748C2.00329 10.5896 1.90022 10.8509 1.78479 11.1435C1.45852 11.9707 1.0334 13.0484 0.917594 14.0355C0.818647 14.8788 0.769621 15.7675 1.06596 16.5326C1.37329 17.3261 2.16597 17.9731 3.23574 18.4166C4.94726 19.0119 6.38946 19.0119 7.32598 19.0119H7.33703L7.34938 19H16.9895C17.0344 18.7322 17.0155 12.0229 15.1852 7.98603C15.2889 7.99528 15.3939 8 15.5 8ZM11 8C11 8.55228 10.5523 9 9.99998 9C9.44769 9 8.99998 8.55228 8.99998 8C8.99998 7.44772 9.44769 7 9.99998 7C10.5523 7 11 7.44772 11 8Z"></path><path d="M11 4C11 4.039 10.9992 4.07782 10.9978 4.11646C8.86008 4.44957 7.39656 5.4541 6.44465 6.56585C5.57855 6.03972 4.99998 5.08743 4.99998 4C4.99998 2.34315 6.34312 1 7.99998 1C9.65683 1 11 2.34315 11 4Z"></path></svg>