<svg width="14px" height="14px" viewBox="0 0 16 16" xmlns="http://www.w3.org/2000/svg" fill="currentColor"><path d="M12.7026 12.9162C12.9564 12.6623 13.3679 12.6623 13.6218 12.9162L15.1074 14.4018C15.3612 14.6556 15.3612 15.0672 15.1074 15.321 14.8535 15.5748 14.442 15.5748 14.1881 15.321L12.7026 13.8354C12.4487 13.5816 12.4487 13.17 12.7026 12.9162ZM7.29409 1.84236C4.25379 1.84236 1.78914 4.30701 1.78914 7.34731 1.78914 10.3876 4.25379 12.8523 7.29409 12.8523 10.3344 12.8523 12.799 10.3876 12.799 7.34731 12.799 4.30701 10.3344 1.84236 7.29409 1.84236ZM.489136 7.34731C.489136 3.58904 3.53582.542358 7.29409.542358 11.0524.542358 14.099 3.58904 14.099 7.34731 14.099 11.1056 11.0524 14.1523 7.29409 14.1523 3.53582 14.1523.489136 11.1056.489136 7.34731Z"></path></svg>